PathFileType	4	(X/Y/Z)	C:\Users\WrightLab\Desktop\Jo\P5V28.trc
DataRate	CameraRate	NumFrames	NumMarkers	Units	OrigDataRate	OrigDataStartFrame	OrigNumFrames
100.00	100.00	       14	19	mm	100.00	689	       918
Frame#	Time	Headset_Front			Headset_Back			Headset_Left			Headset_Right			Left_Shoulder			Right_Shoulder			Sternum			C7			Left Elbow			Right Elbow			Left Wrist			Right Wrist			Left ASIS			Right ASIS			S2			Left Knee			Right Knee			Left Ankle			Right Ankle			
		X1	Y1	Z1	X2	Y2	Z2	X3	Y3	Z3	X4	Y4	Z4	X5	Y5	Z5	X6	Y6	Z6	X7	Y7	Z7	X8	Y8	Z8	X9	Y9	Z9	X10	Y10	Z10	X11	Y11	Z11	X12	Y12	Z12	X13	Y13	Z13	X14	Y14	Z14	X15	Y15	Z15	X16	Y16	Z16	X17	Y17	Z17	X18	Y18	Z18	X19	Y19	Z19	

689	6.880	-452.16733	1402.69543	65.05349							-539.34784	1507.31775	5.20403	-178.02679	1529.11060	-179.52759	-564.49188	1401.83154	-117.55556	-336.54956	1294.62830	-101.62509	-417.68390	1526.90808	-264.49219	-62.15928	1251.10767	-246.18504	-678.29993	1142.72351	-99.66000	-64.58118	1010.29742	-172.91281	-695.07452	1005.62610	101.82295	-158.42464	939.47974	-157.52377	-432.84619	913.86566	-92.94852	-308.24246	1004.89429	-385.70328	-99.23903	505.09079	-180.06290	-465.40811	492.74561	-137.43365	-59.69427	105.90113	-372.18973	-398.06964	91.50242	-234.37657	
690	6.890	-453.07040	1402.59143	66.71871							-541.55164	1506.98938	5.49431	-178.76454	1529.06079	-179.01088	-565.49518	1401.76428	-116.77326	-336.88434	1294.88611	-101.03459	-418.47037	1527.02063	-264.41977	-62.15928	1251.10767	-246.18504	-679.13892	1142.82556	-99.72009	-65.05582	1009.97803	-172.86700	-695.81403	1005.69147	102.26907	-159.02797	939.65131	-157.57019	-433.36127	913.94135	-92.21966	-309.05978	1004.80444	-385.50107	-99.63186	505.34637	-179.55655	-465.55084	492.98752	-137.12938	-59.76103	106.52226	-372.22018	-398.07056	91.51243	-234.37193	
691	6.900	-453.59680	1402.85706	66.64674							-542.06250	1506.83264	5.65376	-179.73756	1529.08972	-178.73531	-566.21045	1401.71191	-117.16425	-338.09598	1294.40710	-101.55196	-419.43854	1526.84326	-263.53204	-63.05355	1250.29321	-245.39009	-680.00122	1142.67444	-99.43147	-66.16816	1009.88263	-172.89777	-695.96283	1006.04517	102.93037	-159.34732	939.75635	-157.45160	-433.69446	914.42029	-93.18816	-309.86826	1004.92889	-385.27432	-100.36388	505.09995	-179.02525	-466.29611	492.30670	-135.11710	-59.51463	106.32138	-372.16632	-398.07660	91.51155	-234.37059	
692	6.910	-454.47009	1402.26355	66.99586							-543.03870	1506.57874	6.06098	-180.53653	1529.15601	-178.29568	-567.24847	1401.66235	-116.27167	-338.72150	1294.12305	-100.99043	-420.17923	1526.75720	-263.13141	-64.46770	1250.32336	-244.68875	-681.03821	1142.66907	-98.69945	-66.55614	1009.28308	-173.17880	-697.62683	1006.66284	102.90205	-159.77753	939.82050	-157.29268	-434.76727	914.13177	-92.25225	-310.44223	1004.88788	-384.98633	-100.36954	505.10751	-179.03116	-466.63324	492.12848	-134.98558	-59.12091	106.87202	-371.67191	-398.06967	91.51197	-234.35231	
693	6.920	-454.96234	1401.65320	65.37984							-543.61755	1506.17346	6.73497	-181.69830	1529.08801	-178.26866	-567.99524	1401.55396	-116.06667	-339.32016	1294.19458	-100.93351	-420.91513	1526.64111	-262.81076	-64.73588	1251.06042	-244.34129	-681.88184	1142.53577	-98.43414	-66.88134	1010.03717	-172.23181	-698.61554	1006.70618	103.24925	-160.74921	939.55267	-156.86075	-434.62509	914.78662	-92.76970	-311.22769	1004.84167	-384.52689	-100.56263	505.24911	-178.48685	-468.20343	493.04138	-134.42191	-59.06931	107.05480	-371.52686	-398.07355	91.49969	-234.36664	
694	6.930	-455.66702	1401.24854	65.26268							-544.27802	1505.71179	7.10175	-182.14909	1529.04089	-178.17169	-568.37976	1401.81592	-115.96202	-339.97327	1294.18652	-100.92776	-421.87369	1526.70996	-262.73767	-64.73588	1251.06042	-244.34129	-682.57013	1142.79102	-98.04183	-68.79723	1009.10388	-173.63327	-698.59851	1006.76160	104.56136	-161.78687	939.25208	-156.85011	-436.43677	914.50189	-91.17352	-312.32831	1005.27405	-384.96680	-100.55529	505.49350	-178.20717	-469.08871	492.67456	-134.09416	-59.06599	107.11442	-371.49939	-398.09595	91.52800	-234.34647	
695	6.940	-456.62164	1401.00916	66.23449							-545.05042	1505.56372	7.13261	-182.87138	1529.01599	-177.46416	-569.27863	1401.67651	-115.44254	-340.95459	1294.28613	-100.86171	-422.57428	1526.60608	-262.33810	-66.62933	1251.11804	-244.90465	-683.47327	1142.80688	-98.09341	-69.17741	1009.19556	-172.15565	-700.69434	1007.76563	104.24110	-162.17798	939.52332	-156.17175	-436.71225	914.47900	-91.47675	-313.02295	1004.74854	-384.47916	-100.73166	505.36743	-177.63058	-469.18039	492.23126	-133.38170	-58.84307	107.42594	-371.29044	-398.06293	91.51448	-234.34717	
696	6.950	-457.21475	1400.43726	66.13177							-544.51605	1505.41443	7.57258	-183.81931	1528.89380	-176.78566	-569.98450	1401.66638	-114.84821	-341.62689	1294.17505	-100.35763	-423.51785	1526.96838	-262.43283	-68.53286	1251.10425	-244.70938	-684.47052	1142.82239	-97.65918	-69.84515	1009.11499	-171.89366	-701.80414	1008.41223	104.27784	-162.56302	939.75604	-155.86450	-437.24496	914.37805	-91.79134	-313.65558	1005.28833	-384.65866	-101.10932	505.67825	-176.48938	-470.24527	492.03998	-133.04539	-58.62565	107.45654	-370.89960	-398.10242	91.54688	-234.34233	
697	6.960	-457.60312	1400.61243	67.14829							-546.74695	1504.88635	8.34000	-184.70219	1528.98865	-176.79044	-570.75134	1401.77393	-114.51476	-342.38110	1294.00317	-100.23876	-424.22113	1526.83838	-262.00562	-69.03793	1250.86914	-244.68774	-685.10980	1142.86438	-97.47414	-70.77747	1008.98230	-171.85912	-702.79010	1009.00079	104.87988	-162.71153	939.70435	-155.92859	-437.57153	914.65753	-91.36385	-314.05582	1005.30212	-384.62390	-101.12756	505.66516	-176.49074	-470.83920	492.29272	-132.87970	-58.79627	107.45792	-370.69958	-398.13083	91.52190	-234.35614	
698	6.970	-458.14227	1400.38916	68.70095							-547.32190	1504.61194	8.73509	-185.02820	1528.95166	-176.77826	-571.46100	1401.32104	-114.28686	-343.10046	1293.84741	-100.03331	-425.14545	1526.83118	-261.80725	-69.33667	1250.96497	-244.76181	-686.08875	1142.96606	-97.25108	-71.33672	1009.05652	-171.35248	-703.00806	1009.29388	105.18923	-162.97887	939.75287	-156.02341	-438.31332	913.84668	-96.04565	-314.78397	1005.78363	-384.92313	-101.03303	506.17538	-176.08954	-471.45175	492.25763	-132.31924	-59.04241	107.77706	-370.54913	-398.13309	91.51936	-234.34819	
699	6.980	-458.70831	1400.05176	68.96497							-547.81299	1504.56604	8.57935	-185.88901	1529.05212	-176.60641	-572.15436	1401.05957	-114.59056	-343.69141	1293.77747	-100.37310	-425.71280	1526.77905	-261.61093	-68.79551	1251.37061	-244.31367	-686.82898	1142.99707	-97.15594	-72.06561	1008.78021	-171.50722	-704.73975	1010.09937	105.21861	-164.50595	940.17365	-155.56410	-437.94125	914.93347	-89.24088	-315.29788	1005.67078	-384.78531	-101.52474	506.08795	-175.40437	-472.19965	491.83322	-131.63083	-59.36758	108.30272	-370.27618	-398.13370	91.52948	-234.34798	
700	6.990	-459.13843	1399.16833	67.96526							-548.67120	1504.47766	9.19126	-186.99222	1528.92383	-176.22644	-573.02716	1400.83167	-114.86121	-344.57574	1293.51636	-100.31841	-426.39764	1526.93921	-261.57660	-70.27714	1251.44873	-243.91855	-687.82153	1143.09875	-97.04425	-72.40146	1008.53497	-171.24669	-705.73749	1010.33826	104.95506	-165.16881	939.91327	-155.36633	-439.10083	914.49670	-88.68143	-315.85370	1005.58545	-384.28793	-101.42007	506.37286	-175.40674	-472.57910	491.85834	-131.73544	-59.19366	108.43187	-370.35107	-398.11670	91.54532	-234.33426	
701	7.000	-459.82791	1398.79700	67.94542							-549.25500	1504.26001	9.51657	-188.00598	1528.51990	-175.56903	-573.76544	1401.12683	-114.44666	-345.33411	1293.56482	-99.38580	-426.92667	1526.89429	-261.45074	-71.10184	1251.01099	-243.78635	-688.88617	1143.37744	-97.32967	-72.92847	1008.76117	-170.74736	-706.84753	1011.12708	105.61038	-165.41092	939.98322	-155.13074	-440.52277	914.01477	-88.52989	-316.42532	1005.32019	-384.00922	-101.66586	506.62112	-174.64778	-473.07492	492.11154	-131.30931	-58.96971	108.71281	-370.11578	-398.08774	91.53384	-234.32381	
702	7.010	-461.11996	1399.64539	69.94608							-549.67615	1504.24768	9.92319	-188.17757	1528.63464	-175.32558	-574.53259	1401.31970	-114.18828	-346.12183	1294.05884	-99.03912	-427.80453	1527.09534	-260.85110	-71.18682	1250.97949	-243.81471	-689.54187	1143.43689	-97.49817	-73.35299	1008.75787	-170.78813	-706.69141	1011.62134	106.19421	-166.25070	939.90527	-154.81180	-441.21085	913.89404	-88.15901	-317.00378	1005.00586	-383.82504	-101.40437	506.74503	-174.27266	-474.19052	491.76773	-130.41951	-58.77763	108.81494	-369.68674	-398.07321	91.55771	-234.30811	
